<?xml version="1.0" encoding="utf-8" standalone="no"?>
<!DOCTYPE svg PUBLIC "-//W3C//DTD SVG 1.1//EN"
  "http://www.w3.org/Graphics/SVG/1.1/DTD/svg11.dtd">
<svg xmlns:xlink="http://www.w3.org/1999/xlink" width="263.1pt" height="220.836473pt" viewBox="0 0 263.1 220.836473" xmlns="http://www.w3.org/2000/svg" version="1.1">
 <metadata>
  <rdf:RDF xmlns:dc="http://purl.org/dc/elements/1.1/" xmlns:cc="http://creativecommons.org/ns#" xmlns:rdf="http://www.w3.org/1999/02/22-rdf-syntax-ns#">
   <cc:Work>
    <dc:type rdf:resource="http://purl.org/dc/dcmitype/StillImage"/>
    <dc:date>2024-10-29T03:45:39.746248</dc:date>
    <dc:format>image/svg+xml</dc:format>
    <dc:creator>
     <cc:Agent>
      <dc:title>Matplotlib v3.9.2, https://matplotlib.org/</dc:title>
     </cc:Agent>
    </dc:creator>
   </cc:Work>
  </rdf:RDF>
 </metadata>
 <defs>
  <style type="text/css">*{stroke-linejoin: round; stroke-linecap: butt}</style>
 </defs>
 <g id="figure_1">
  <g id="patch_1">
   <path d="M 0 220.836473 
L 263.1 220.836473 
L 263.1 0 
L 0 0 
z
" style="fill: #ffffff"/>
  </g>
  <g id="axes_1">
   <g id="patch_2">
    <path d="M 29.91 188.15616 
L 255.9 188.15616 
L 255.9 98.401905 
L 29.91 98.401905 
z
" style="fill: #ffffff"/>
   </g>
   <g id="matplotlib.axis_1">
    <g id="xtick_1">
     <g id="line2d_1">
      <defs>
       <path id="m1411148f26" d="M 0 0 
L 0 -4 
" style="stroke: #000000"/>
      </defs>
      <g>
       <use xlink:href="#m1411148f26" x="29.91" y="188.15616" style="stroke: #000000"/>
      </g>
     </g>
     <g id="text_1">
      <!-- $\mathdefault{0}$ -->
      <g transform="translate(27.03 198.494754) scale(0.09 -0.09)">
       <defs>
        <path id="DejaVuSerif-30" d="M 2034 219 
Q 2513 219 2750 744 
Q 2988 1269 2988 2328 
Q 2988 3391 2750 3916 
Q 2513 4441 2034 4441 
Q 1556 4441 1318 3916 
Q 1081 3391 1081 2328 
Q 1081 1269 1318 744 
Q 1556 219 2034 219 
z
M 2034 -91 
Q 1275 -91 848 546 
Q 422 1184 422 2328 
Q 422 3475 848 4112 
Q 1275 4750 2034 4750 
Q 2797 4750 3222 4112 
Q 3647 3475 3647 2328 
Q 3647 1184 3222 546 
Q 2797 -91 2034 -91 
z
" transform="scale(0.015625)"/>
       </defs>
       <use xlink:href="#DejaVuSerif-30" transform="translate(0 0.78125)"/>
      </g>
     </g>
    </g>
    <g id="xtick_2">
     <g id="line2d_2">
      <g>
       <use xlink:href="#m1411148f26" x="84.398246" y="188.15616" style="stroke: #000000"/>
      </g>
     </g>
     <g id="text_2">
      <!-- $\mathdefault{5}$ -->
      <g transform="translate(81.518246 198.494754) scale(0.09 -0.09)">
       <defs>
        <path id="DejaVuSerif-35" d="M 3219 4666 
L 3219 4153 
L 1081 4153 
L 1081 2816 
Q 1244 2928 1461 2984 
Q 1678 3041 1947 3041 
Q 2703 3041 3140 2622 
Q 3578 2203 3578 1478 
Q 3578 738 3136 323 
Q 2694 -91 1894 -91 
Q 1572 -91 1234 -12 
Q 897 66 544 225 
L 544 1131 
L 897 1131 
Q 925 688 1179 453 
Q 1434 219 1894 219 
Q 2388 219 2653 544 
Q 2919 869 2919 1478 
Q 2919 2084 2655 2407 
Q 2391 2731 1894 2731 
Q 1613 2731 1398 2631 
Q 1184 2531 1019 2322 
L 750 2322 
L 750 4666 
L 3219 4666 
z
" transform="scale(0.015625)"/>
       </defs>
       <use xlink:href="#DejaVuSerif-35" transform="translate(0 0.09375)"/>
      </g>
     </g>
    </g>
    <g id="xtick_3">
     <g id="line2d_3">
      <g>
       <use xlink:href="#m1411148f26" x="138.886492" y="188.15616" style="stroke: #000000"/>
      </g>
     </g>
     <g id="text_3">
      <!-- $\mathdefault{10}$ -->
      <g transform="translate(133.126492 198.494754) scale(0.09 -0.09)">
       <defs>
        <path id="DejaVuSerif-31" d="M 909 0 
L 909 331 
L 1722 331 
L 1722 4213 
L 781 3603 
L 781 4013 
L 1919 4750 
L 2350 4750 
L 2350 331 
L 3163 331 
L 3163 0 
L 909 0 
z
" transform="scale(0.015625)"/>
       </defs>
       <use xlink:href="#DejaVuSerif-31" transform="translate(0 0.78125)"/>
       <use xlink:href="#DejaVuSerif-30" transform="translate(63.623047 0.78125)"/>
      </g>
     </g>
    </g>
    <g id="xtick_4">
     <g id="line2d_4">
      <g>
       <use xlink:href="#m1411148f26" x="193.374738" y="188.15616" style="stroke: #000000"/>
      </g>
     </g>
     <g id="text_4">
      <!-- $\mathdefault{15}$ -->
      <g transform="translate(187.614738 198.494754) scale(0.09 -0.09)">
       <use xlink:href="#DejaVuSerif-31" transform="translate(0 0.78125)"/>
       <use xlink:href="#DejaVuSerif-35" transform="translate(63.623047 0.78125)"/>
      </g>
     </g>
    </g>
    <g id="xtick_5">
     <g id="line2d_5">
      <g>
       <use xlink:href="#m1411148f26" x="247.862984" y="188.15616" style="stroke: #000000"/>
      </g>
     </g>
     <g id="text_5">
      <!-- $\mathdefault{20}$ -->
      <g transform="translate(242.102984 198.494754) scale(0.09 -0.09)">
       <defs>
        <path id="DejaVuSerif-32" d="M 819 3553 
L 469 3553 
L 469 4384 
Q 803 4563 1142 4656 
Q 1481 4750 1806 4750 
Q 2534 4750 2956 4397 
Q 3378 4044 3378 3438 
Q 3378 2753 2422 1800 
Q 2347 1728 2309 1691 
L 1131 513 
L 3078 513 
L 3078 1088 
L 3444 1088 
L 3444 0 
L 434 0 
L 434 341 
L 1850 1753 
Q 2319 2222 2519 2614 
Q 2719 3006 2719 3438 
Q 2719 3909 2473 4175 
Q 2228 4441 1797 4441 
Q 1350 4441 1106 4219 
Q 863 3997 819 3553 
z
" transform="scale(0.015625)"/>
       </defs>
       <use xlink:href="#DejaVuSerif-32" transform="translate(0 0.78125)"/>
       <use xlink:href="#DejaVuSerif-30" transform="translate(63.623047 0.78125)"/>
      </g>
     </g>
    </g>
    <g id="text_6">
     <!-- ${}^8$B neutrino flux [10$^6$ cm$^{-2}$s$^{-1}$] -->
     <g transform="translate(73.605 211.764754) scale(0.09 -0.09)">
      <defs>
       <path id="DejaVuSerif-38" d="M 2981 1275 
Q 2981 1775 2732 2051 
Q 2484 2328 2034 2328 
Q 1584 2328 1336 2051 
Q 1088 1775 1088 1275 
Q 1088 772 1336 495 
Q 1584 219 2034 219 
Q 2484 219 2732 495 
Q 2981 772 2981 1275 
z
M 2853 3541 
Q 2853 3966 2637 4203 
Q 2422 4441 2034 4441 
Q 1650 4441 1433 4203 
Q 1216 3966 1216 3541 
Q 1216 3113 1433 2875 
Q 1650 2638 2034 2638 
Q 2422 2638 2637 2875 
Q 2853 3113 2853 3541 
z
M 2516 2484 
Q 3047 2413 3344 2092 
Q 3641 1772 3641 1275 
Q 3641 619 3225 264 
Q 2809 -91 2034 -91 
Q 1263 -91 845 264 
Q 428 619 428 1275 
Q 428 1772 725 2092 
Q 1022 2413 1556 2484 
Q 1084 2569 832 2842 
Q 581 3116 581 3541 
Q 581 4103 968 4426 
Q 1356 4750 2034 4750 
Q 2713 4750 3100 4426 
Q 3488 4103 3488 3541 
Q 3488 3116 3236 2842 
Q 2984 2569 2516 2484 
z
" transform="scale(0.015625)"/>
       <path id="DejaVuSerif-42" d="M 1581 331 
L 2516 331 
Q 3078 331 3337 575 
Q 3597 819 3597 1350 
Q 3597 1878 3339 2120 
Q 3081 2363 2516 2363 
L 1581 2363 
L 1581 331 
z
M 1581 2694 
L 2375 2694 
Q 2888 2694 3123 2891 
Q 3359 3088 3359 3513 
Q 3359 3941 3123 4136 
Q 2888 4331 2375 4331 
L 1581 4331 
L 1581 2694 
z
M 353 0 
L 353 331 
L 947 331 
L 947 4331 
L 353 4331 
L 353 4666 
L 2656 4666 
Q 3363 4666 3720 4377 
Q 4078 4088 4078 3513 
Q 4078 3097 3829 2850 
Q 3581 2603 3103 2547 
Q 3697 2472 4005 2167 
Q 4313 1863 4313 1350 
Q 4313 656 3875 328 
Q 3438 0 2509 0 
L 353 0 
z
" transform="scale(0.015625)"/>
       <path id="DejaVuSerif-20" transform="scale(0.015625)"/>
       <path id="DejaVuSerif-6e" d="M 263 0 
L 263 331 
L 781 331 
L 781 2988 
L 231 2988 
L 231 3322 
L 1356 3322 
L 1356 2731 
Q 1516 3069 1770 3241 
Q 2025 3413 2363 3413 
Q 2913 3413 3172 3097 
Q 3431 2781 3431 2113 
L 3431 331 
L 3944 331 
L 3944 0 
L 2356 0 
L 2356 331 
L 2853 331 
L 2853 1931 
Q 2853 2541 2703 2767 
Q 2553 2994 2175 2994 
Q 1775 2994 1565 2701 
Q 1356 2409 1356 1850 
L 1356 331 
L 1856 331 
L 1856 0 
L 263 0 
z
" transform="scale(0.015625)"/>
       <path id="DejaVuSerif-65" d="M 3469 1600 
L 991 1600 
L 991 1575 
Q 991 903 1244 561 
Q 1497 219 1991 219 
Q 2369 219 2611 417 
Q 2853 616 2950 1006 
L 3413 1006 
Q 3275 459 2904 184 
Q 2534 -91 1931 -91 
Q 1203 -91 761 389 
Q 319 869 319 1663 
Q 319 2450 753 2931 
Q 1188 3413 1894 3413 
Q 2647 3413 3050 2948 
Q 3453 2484 3469 1600 
z
M 2791 1931 
Q 2772 2513 2545 2808 
Q 2319 3103 1894 3103 
Q 1497 3103 1269 2806 
Q 1041 2509 991 1931 
L 2791 1931 
z
" transform="scale(0.015625)"/>
       <path id="DejaVuSerif-75" d="M 2266 3322 
L 3341 3322 
L 3341 331 
L 3884 331 
L 3884 0 
L 2766 0 
L 2766 588 
Q 2606 256 2353 82 
Q 2100 -91 1766 -91 
Q 1213 -91 952 223 
Q 691 538 691 1209 
L 691 2988 
L 172 2988 
L 172 3322 
L 1269 3322 
L 1269 1388 
Q 1269 781 1417 556 
Q 1566 331 1947 331 
Q 2347 331 2556 625 
Q 2766 919 2766 1478 
L 2766 2988 
L 2266 2988 
L 2266 3322 
z
" transform="scale(0.015625)"/>
       <path id="DejaVuSerif-74" d="M 691 2988 
L 184 2988 
L 184 3322 
L 691 3322 
L 691 4353 
L 1269 4353 
L 1269 3322 
L 2350 3322 
L 2350 2988 
L 1269 2988 
L 1269 878 
Q 1269 456 1350 337 
Q 1431 219 1650 219 
Q 1875 219 1978 351 
Q 2081 484 2088 781 
L 2522 781 
Q 2497 328 2275 118 
Q 2053 -91 1600 -91 
Q 1103 -91 897 129 
Q 691 350 691 878 
L 691 2988 
z
" transform="scale(0.015625)"/>
       <path id="DejaVuSerif-72" d="M 3059 3328 
L 3059 2497 
L 2728 2497 
Q 2713 2744 2591 2866 
Q 2469 2988 2234 2988 
Q 1809 2988 1582 2694 
Q 1356 2400 1356 1850 
L 1356 331 
L 2022 331 
L 2022 0 
L 263 0 
L 263 331 
L 781 331 
L 781 2994 
L 231 2994 
L 231 3322 
L 1356 3322 
L 1356 2731 
Q 1525 3078 1790 3245 
Q 2056 3413 2438 3413 
Q 2578 3413 2733 3391 
Q 2888 3369 3059 3328 
z
" transform="scale(0.015625)"/>
       <path id="DejaVuSerif-69" d="M 622 4353 
Q 622 4497 726 4603 
Q 831 4709 978 4709 
Q 1122 4709 1226 4603 
Q 1331 4497 1331 4353 
Q 1331 4206 1228 4103 
Q 1125 4000 978 4000 
Q 831 4000 726 4103 
Q 622 4206 622 4353 
z
M 1356 331 
L 1900 331 
L 1900 0 
L 231 0 
L 231 331 
L 781 331 
L 781 2988 
L 231 2988 
L 231 3322 
L 1356 3322 
L 1356 331 
z
" transform="scale(0.015625)"/>
       <path id="DejaVuSerif-6f" d="M 1925 219 
Q 2388 219 2623 584 
Q 2859 950 2859 1663 
Q 2859 2375 2623 2739 
Q 2388 3103 1925 3103 
Q 1463 3103 1227 2739 
Q 991 2375 991 1663 
Q 991 950 1228 584 
Q 1466 219 1925 219 
z
M 1925 -91 
Q 1200 -91 759 389 
Q 319 869 319 1663 
Q 319 2456 758 2934 
Q 1197 3413 1925 3413 
Q 2653 3413 3092 2934 
Q 3531 2456 3531 1663 
Q 3531 869 3092 389 
Q 2653 -91 1925 -91 
z
" transform="scale(0.015625)"/>
       <path id="DejaVuSerif-66" d="M 2753 4078 
L 2450 4078 
Q 2447 4313 2317 4434 
Q 2188 4556 1941 4556 
Q 1619 4556 1487 4379 
Q 1356 4203 1356 3750 
L 1356 3322 
L 2284 3322 
L 2284 2988 
L 1356 2988 
L 1356 331 
L 2094 331 
L 2094 0 
L 231 0 
L 231 331 
L 781 331 
L 781 2988 
L 231 2988 
L 231 3322 
L 781 3322 
L 781 3738 
Q 781 4294 1070 4578 
Q 1359 4863 1919 4863 
Q 2128 4863 2337 4825 
Q 2547 4788 2753 4709 
L 2753 4078 
z
" transform="scale(0.015625)"/>
       <path id="DejaVuSerif-6c" d="M 1313 331 
L 1856 331 
L 1856 0 
L 184 0 
L 184 331 
L 738 331 
L 738 4531 
L 184 4531 
L 184 4863 
L 1313 4863 
L 1313 331 
z
" transform="scale(0.015625)"/>
       <path id="DejaVuSerif-78" d="M 1863 2028 
L 2559 2988 
L 2113 2988 
L 2113 3322 
L 3391 3322 
L 3391 2988 
L 2950 2988 
L 2059 1759 
L 3097 331 
L 3531 331 
L 3531 0 
L 1997 0 
L 1997 331 
L 2419 331 
L 1697 1325 
L 972 331 
L 1403 331 
L 1403 0 
L 141 0 
L 141 331 
L 581 331 
L 1497 1594 
L 488 2988 
L 78 2988 
L 78 3322 
L 1563 3322 
L 1563 2988 
L 1166 2988 
L 1863 2028 
z
" transform="scale(0.015625)"/>
       <path id="DejaVuSerif-5b" d="M 550 4863 
L 2003 4863 
L 2003 4531 
L 1147 4531 
L 1147 -513 
L 2003 -513 
L 2003 -844 
L 550 -844 
L 550 4863 
z
" transform="scale(0.015625)"/>
       <path id="DejaVuSerif-36" d="M 2094 219 
Q 2534 219 2771 542 
Q 3009 866 3009 1472 
Q 3009 2078 2771 2401 
Q 2534 2725 2094 2725 
Q 1647 2725 1412 2412 
Q 1178 2100 1178 1509 
Q 1178 888 1415 553 
Q 1653 219 2094 219 
z
M 1075 2569 
Q 1288 2803 1556 2918 
Q 1825 3034 2163 3034 
Q 2859 3034 3264 2615 
Q 3669 2197 3669 1472 
Q 3669 763 3233 336 
Q 2797 -91 2069 -91 
Q 1278 -91 853 498 
Q 428 1088 428 2181 
Q 428 3406 931 4078 
Q 1434 4750 2350 4750 
Q 2597 4750 2869 4703 
Q 3141 4656 3425 4563 
L 3425 3794 
L 3072 3794 
Q 3034 4109 2831 4275 
Q 2628 4441 2284 4441 
Q 1678 4441 1381 3981 
Q 1084 3522 1075 2569 
z
" transform="scale(0.015625)"/>
       <path id="DejaVuSerif-63" d="M 3291 997 
Q 3169 466 2822 187 
Q 2475 -91 1925 -91 
Q 1200 -91 759 389 
Q 319 869 319 1663 
Q 319 2459 759 2936 
Q 1200 3413 1925 3413 
Q 2241 3413 2553 3339 
Q 2866 3266 3181 3116 
L 3181 2266 
L 2847 2266 
Q 2781 2703 2561 2903 
Q 2341 3103 1931 3103 
Q 1466 3103 1228 2742 
Q 991 2381 991 1663 
Q 991 944 1227 581 
Q 1463 219 1931 219 
Q 2303 219 2525 412 
Q 2747 606 2828 997 
L 3291 997 
z
" transform="scale(0.015625)"/>
       <path id="DejaVuSerif-6d" d="M 3316 2675 
Q 3481 3041 3739 3227 
Q 3997 3413 4341 3413 
Q 4863 3413 5119 3089 
Q 5375 2766 5375 2113 
L 5375 331 
L 5894 331 
L 5894 0 
L 4300 0 
L 4300 331 
L 4800 331 
L 4800 2047 
Q 4800 2556 4650 2772 
Q 4500 2988 4153 2988 
Q 3769 2988 3567 2697 
Q 3366 2406 3366 1850 
L 3366 331 
L 3866 331 
L 3866 0 
L 2291 0 
L 2291 331 
L 2791 331 
L 2791 2069 
Q 2791 2566 2641 2777 
Q 2491 2988 2144 2988 
Q 1759 2988 1557 2697 
Q 1356 2406 1356 1850 
L 1356 331 
L 1856 331 
L 1856 0 
L 263 0 
L 263 331 
L 781 331 
L 781 2994 
L 231 2994 
L 231 3322 
L 1356 3322 
L 1356 2731 
Q 1516 3063 1762 3238 
Q 2009 3413 2322 3413 
Q 2709 3413 2968 3220 
Q 3228 3028 3316 2675 
z
" transform="scale(0.015625)"/>
       <path id="DejaVuSerif-2212" d="M 678 2259 
L 4684 2259 
L 4684 1753 
L 678 1753 
L 678 2259 
z
" transform="scale(0.015625)"/>
       <path id="DejaVuSerif-73" d="M 359 184 
L 359 959 
L 691 959 
Q 703 588 923 403 
Q 1144 219 1575 219 
Q 1963 219 2166 364 
Q 2369 509 2369 788 
Q 2369 1006 2220 1140 
Q 2072 1275 1594 1428 
L 1178 1569 
Q 750 1706 558 1912 
Q 366 2119 366 2438 
Q 366 2894 700 3153 
Q 1034 3413 1625 3413 
Q 1888 3413 2178 3344 
Q 2469 3275 2778 3144 
L 2778 2419 
L 2447 2419 
Q 2434 2741 2221 2922 
Q 2009 3103 1644 3103 
Q 1281 3103 1095 2975 
Q 909 2847 909 2591 
Q 909 2381 1050 2254 
Q 1191 2128 1613 1997 
L 2069 1856 
Q 2541 1709 2748 1489 
Q 2956 1269 2956 922 
Q 2956 450 2595 179 
Q 2234 -91 1600 -91 
Q 1278 -91 972 -22 
Q 666 47 359 184 
z
" transform="scale(0.015625)"/>
       <path id="DejaVuSerif-5d" d="M 1947 4863 
L 1947 -844 
L 494 -844 
L 494 -513 
L 1350 -513 
L 1350 4531 
L 494 4531 
L 494 4863 
L 1947 4863 
z
" transform="scale(0.015625)"/>
      </defs>
      <use xlink:href="#DejaVuSerif-38" transform="translate(0.908359 37.046875) scale(0.7)"/>
      <use xlink:href="#DejaVuSerif-42" transform="translate(48.039805 0.7125)"/>
      <use xlink:href="#DejaVuSerif-20" transform="translate(121.526133 0.7125)"/>
      <use xlink:href="#DejaVuSerif-6e" transform="translate(153.313242 0.7125)"/>
      <use xlink:href="#DejaVuSerif-65" transform="translate(217.717539 0.7125)"/>
      <use xlink:href="#DejaVuSerif-75" transform="translate(276.897227 0.7125)"/>
      <use xlink:href="#DejaVuSerif-74" transform="translate(341.301523 0.7125)"/>
      <use xlink:href="#DejaVuSerif-72" transform="translate(381.48707 0.7125)"/>
      <use xlink:href="#DejaVuSerif-69" transform="translate(429.289805 0.7125)"/>
      <use xlink:href="#DejaVuSerif-6e" transform="translate(461.272227 0.7125)"/>
      <use xlink:href="#DejaVuSerif-6f" transform="translate(525.676523 0.7125)"/>
      <use xlink:href="#DejaVuSerif-20" transform="translate(585.881602 0.7125)"/>
      <use xlink:href="#DejaVuSerif-66" transform="translate(617.668711 0.7125)"/>
      <use xlink:href="#DejaVuSerif-6c" transform="translate(654.68043 0.7125)"/>
      <use xlink:href="#DejaVuSerif-75" transform="translate(686.662852 0.7125)"/>
      <use xlink:href="#DejaVuSerif-78" transform="translate(751.067148 0.7125)"/>
      <use xlink:href="#DejaVuSerif-20" transform="translate(807.463633 0.7125)"/>
      <use xlink:href="#DejaVuSerif-5b" transform="translate(839.250742 0.7125)"/>
      <use xlink:href="#DejaVuSerif-31" transform="translate(878.264414 0.7125)"/>
      <use xlink:href="#DejaVuSerif-30" transform="translate(941.887461 0.7125)"/>
      <use xlink:href="#DejaVuSerif-36" transform="translate(1006.418867 37.046875) scale(0.7)"/>
      <use xlink:href="#DejaVuSerif-20" transform="translate(1053.550313 0.7125)"/>
      <use xlink:href="#DejaVuSerif-63" transform="translate(1085.337422 0.7125)"/>
      <use xlink:href="#DejaVuSerif-6d" transform="translate(1141.343281 0.7125)"/>
      <use xlink:href="#DejaVuSerif-2212" transform="translate(1237.075859 37.046875) scale(0.7)"/>
      <use xlink:href="#DejaVuSerif-32" transform="translate(1295.728203 37.046875) scale(0.7)"/>
      <use xlink:href="#DejaVuSerif-73" transform="translate(1342.859648 0.7125)"/>
      <use xlink:href="#DejaVuSerif-2212" transform="translate(1395.086367 37.046875) scale(0.7)"/>
      <use xlink:href="#DejaVuSerif-31" transform="translate(1453.738711 37.046875) scale(0.7)"/>
      <use xlink:href="#DejaVuSerif-5d" transform="translate(1500.870156 0.7125)"/>
     </g>
    </g>
   </g>
   <g id="matplotlib.axis_2">
    <g id="ytick_1">
     <g id="line2d_6">
      <defs>
       <path id="mf6cfab89ea" d="M 0 0 
L 4 0 
" style="stroke: #000000"/>
      </defs>
      <g>
       <use xlink:href="#mf6cfab89ea" x="29.91" y="188.15616" style="stroke: #000000"/>
      </g>
     </g>
     <g id="text_7">
      <!-- $\mathdefault{0}$ -->
      <g transform="translate(20.65 191.575457) scale(0.09 -0.09)">
       <use xlink:href="#DejaVuSerif-30" transform="translate(0 0.78125)"/>
      </g>
     </g>
    </g>
    <g id="ytick_2">
     <g id="line2d_7">
      <g>
       <use xlink:href="#mf6cfab89ea" x="29.91" y="164.221692" style="stroke: #000000"/>
      </g>
     </g>
     <g id="text_8">
      <!-- $\mathdefault{2}$ -->
      <g transform="translate(20.65 167.640989) scale(0.09 -0.09)">
       <use xlink:href="#DejaVuSerif-32" transform="translate(0 0.78125)"/>
      </g>
     </g>
    </g>
    <g id="ytick_3">
     <g id="line2d_8">
      <g>
       <use xlink:href="#mf6cfab89ea" x="29.91" y="140.287224" style="stroke: #000000"/>
      </g>
     </g>
     <g id="text_9">
      <!-- $\mathdefault{4}$ -->
      <g transform="translate(20.65 143.706521) scale(0.09 -0.09)">
       <defs>
        <path id="DejaVuSerif-34" d="M 2234 1581 
L 2234 4063 
L 641 1581 
L 2234 1581 
z
M 3609 0 
L 1484 0 
L 1484 331 
L 2234 331 
L 2234 1247 
L 197 1247 
L 197 1588 
L 2241 4750 
L 2859 4750 
L 2859 1581 
L 3750 1581 
L 3750 1247 
L 2859 1247 
L 2859 331 
L 3609 331 
L 3609 0 
z
" transform="scale(0.015625)"/>
       </defs>
       <use xlink:href="#DejaVuSerif-34" transform="translate(0 0.78125)"/>
      </g>
     </g>
    </g>
    <g id="ytick_4">
     <g id="line2d_9">
      <g>
       <use xlink:href="#mf6cfab89ea" x="29.91" y="116.352756" style="stroke: #000000"/>
      </g>
     </g>
     <g id="text_10">
      <!-- $\mathdefault{6}$ -->
      <g transform="translate(20.65 119.772053) scale(0.09 -0.09)">
       <use xlink:href="#DejaVuSerif-36" transform="translate(0 0.78125)"/>
      </g>
     </g>
    </g>
    <g id="text_11">
     <!-- Test statistic $q_\mu$ -->
     <g transform="translate(13.86 179.099032) rotate(-90) scale(0.09 -0.09)">
      <defs>
       <path id="DejaVuSerif-54" d="M 1222 0 
L 1222 331 
L 1819 331 
L 1819 4294 
L 447 4294 
L 447 3566 
L 63 3566 
L 63 4666 
L 4206 4666 
L 4206 3566 
L 3822 3566 
L 3822 4294 
L 2450 4294 
L 2450 331 
L 3047 331 
L 3047 0 
L 1222 0 
z
" transform="scale(0.015625)"/>
       <path id="DejaVuSerif-61" d="M 2547 1044 
L 2547 1747 
L 1806 1747 
Q 1378 1747 1168 1562 
Q 959 1378 959 997 
Q 959 650 1171 447 
Q 1384 244 1747 244 
Q 2106 244 2326 466 
Q 2547 688 2547 1044 
z
M 3122 2075 
L 3122 331 
L 3634 331 
L 3634 0 
L 2547 0 
L 2547 359 
Q 2356 128 2106 18 
Q 1856 -91 1522 -91 
Q 969 -91 644 203 
Q 319 497 319 997 
Q 319 1513 691 1797 
Q 1063 2081 1741 2081 
L 2547 2081 
L 2547 2309 
Q 2547 2688 2317 2895 
Q 2088 3103 1672 3103 
Q 1328 3103 1125 2947 
Q 922 2791 872 2484 
L 575 2484 
L 575 3156 
Q 875 3284 1158 3348 
Q 1441 3413 1709 3413 
Q 2400 3413 2761 3070 
Q 3122 2728 3122 2075 
z
" transform="scale(0.015625)"/>
       <path id="DejaVuSerif-Italic-71" d="M 2684 519 
Q 2469 206 2206 56 
Q 1944 -91 1597 -91 
Q 1047 -91 769 281 
Q 594 516 575 841 
Q 563 1031 606 1256 
Q 822 2359 1588 2928 
Q 2241 3409 3006 3413 
Q 3613 3416 3803 3322 
L 2963 -1000 
L 3516 -1000 
L 3450 -1331 
L 2322 -1331 
L 2684 519 
z
M 2916 3094 
Q 2316 3094 1850 2625 
Q 1388 2153 1219 1297 
Q 1172 1044 1184 853 
Q 1197 659 1275 528 
Q 1428 269 1828 269 
Q 2222 269 2489 583 
Q 2756 897 2872 1497 
L 3166 3003 
Q 3169 3094 2916 3094 
z
" transform="scale(0.015625)"/>
       <path id="DejaVuSerif-Italic-3bc" d="M 284 -1331 
L 1125 2988 
L 606 2988 
L 672 3322 
L 1766 3322 
L 1388 1388 
Q 1272 781 1378 556 
Q 1484 331 1863 331 
Q 2263 331 2528 625 
Q 2794 919 2903 1478 
L 3197 2988 
L 2697 2988 
L 2763 3322 
L 3838 3322 
L 3253 325 
L 3797 325 
L 3734 0 
L 2616 0 
L 2731 588 
Q 2503 256 2239 82 
Q 1975 -91 1694 -91 
Q 1516 -91 1380 -34 
Q 1244 22 1144 134 
L 859 -1331 
L 284 -1331 
z
" transform="scale(0.015625)"/>
      </defs>
      <use xlink:href="#DejaVuSerif-54" transform="translate(0 0.421875)"/>
      <use xlink:href="#DejaVuSerif-65" transform="translate(66.699219 0.421875)"/>
      <use xlink:href="#DejaVuSerif-73" transform="translate(125.878906 0.421875)"/>
      <use xlink:href="#DejaVuSerif-74" transform="translate(177.197266 0.421875)"/>
      <use xlink:href="#DejaVuSerif-20" transform="translate(217.382812 0.421875)"/>
      <use xlink:href="#DejaVuSerif-73" transform="translate(249.169922 0.421875)"/>
      <use xlink:href="#DejaVuSerif-74" transform="translate(300.488281 0.421875)"/>
      <use xlink:href="#DejaVuSerif-61" transform="translate(340.673828 0.421875)"/>
      <use xlink:href="#DejaVuSerif-74" transform="translate(400.292969 0.421875)"/>
      <use xlink:href="#DejaVuSerif-69" transform="translate(440.478516 0.421875)"/>
      <use xlink:href="#DejaVuSerif-73" transform="translate(472.460938 0.421875)"/>
      <use xlink:href="#DejaVuSerif-74" transform="translate(523.779297 0.421875)"/>
      <use xlink:href="#DejaVuSerif-69" transform="translate(563.964844 0.421875)"/>
      <use xlink:href="#DejaVuSerif-63" transform="translate(595.947266 0.421875)"/>
      <use xlink:href="#DejaVuSerif-20" transform="translate(651.953125 0.421875)"/>
      <use xlink:href="#DejaVuSerif-Italic-71" transform="translate(683.740234 0.421875)"/>
      <use xlink:href="#DejaVuSerif-Italic-3bc" transform="translate(747.753906 -15.15) scale(0.7)"/>
     </g>
    </g>
   </g>
   <g id="line2d_10">
    <path d="M 29.91 186.217983 
L 34.487013 183.211728 
L 39.064025 180.205473 
L 43.641038 177.199218 
L 48.218051 176.51025 
L 52.795063 176.152322 
L 57.372076 176.00853 
L 61.949089 176.080816 
L 66.526101 176.131955 
L 71.103114 176.183095 
L 75.680127 176.187041 
L 80.257139 176.162672 
L 84.834152 176.138302 
L 89.411165 176.159481 
L 93.988177 176.22621 
L 98.56519 176.292938 
L 103.142203 176.359666 
L 107.719215 176.426394 
L 112.296228 176.493122 
L 116.873241 176.537736 
L 121.450253 176.516008 
L 126.027266 176.49428 
L 130.604278 176.472552 
L 135.181291 176.450824 
L 139.758304 176.429096 
L 144.335316 176.407368 
L 148.912329 176.402846 
L 153.489342 176.398324 
L 158.066354 176.393802 
L 162.643367 176.38928 
L 167.22038 176.384758 
L 171.797392 176.380236 
L 176.374405 176.383901 
L 180.951418 176.390294 
L 185.52843 176.396688 
L 190.105443 176.403081 
L 194.682456 176.409474 
L 199.259468 176.415868 
L 203.836481 176.41018 
L 208.413494 176.39241 
L 212.990506 176.37464 
L 217.567519 176.35687 
L 222.144532 176.3391 
L 226.721544 176.32133 
L 231.298557 176.314277 
L 235.87557 176.339376 
L 240.452582 176.364475 
L 245.029595 176.389573 
L 249.606608 176.414672 
L 254.18362 176.439771 
L 258.760633 176.46487 
" clip-path="url(#p15ed979102)" style="fill: none; stroke: #000000; stroke-linecap: square"/>
   </g>
   <g id="line2d_11">
    <path d="M 29.91 170.323882 
L 34.487013 167.490142 
L 39.064025 164.656402 
L 43.641038 161.822662 
L 48.218051 159.901672 
L 52.795063 158.111076 
L 57.372076 156.862871 
L 61.949089 156.449267 
L 66.526101 156.306078 
L 71.103114 156.162889 
L 75.680127 156.058309 
L 80.257139 155.976893 
L 84.834152 155.895477 
L 89.411165 155.933396 
L 93.988177 156.090649 
L 98.56519 156.247903 
L 103.142203 156.405156 
L 107.719215 156.562409 
L 112.296228 156.719663 
L 116.873241 156.823369 
L 121.450253 156.766434 
L 126.027266 156.709498 
L 130.604278 156.652563 
L 135.181291 156.595628 
L 139.758304 156.538693 
L 144.335316 156.481757 
L 148.912329 156.514022 
L 153.489342 156.546286 
L 158.066354 156.57855 
L 162.643367 156.610814 
L 167.22038 156.643078 
L 171.797392 156.675342 
L 176.374405 156.706595 
L 180.951418 156.73751 
L 185.52843 156.768425 
L 190.105443 156.79934 
L 194.682456 156.830256 
L 199.259468 156.861171 
L 203.836481 156.86143 
L 208.413494 156.831031 
L 212.990506 156.800633 
L 217.567519 156.770235 
L 222.144532 156.739837 
L 226.721544 156.709439 
L 231.298557 156.688384 
L 235.87557 156.695361 
L 240.452582 156.702337 
L 245.029595 156.709314 
L 249.606608 156.71629 
L 254.18362 156.723267 
L 258.760633 156.730244 
" clip-path="url(#p15ed979102)" style="fill: none; stroke: #909090; stroke-linecap: square"/>
   </g>
   <g id="line2d_12">
    <path d="M 29.91 102.70715 
L 34.487013 122.390498 
L 39.064025 139.24081 
L 43.641038 152.884803 
L 48.218051 163.52798 
L 52.795063 171.605737 
L 57.372076 177.586211 
L 61.949089 181.882376 
L 66.526101 184.826984 
L 71.103114 186.715398 
L 75.680127 187.767075 
L 80.257139 188.148161 
L 84.834152 187.990143 
L 89.411165 187.399907 
L 93.988177 186.457413 
L 98.56519 185.216976 
L 103.142203 183.717406 
L 107.719215 182.011304 
L 112.296228 180.140563 
L 116.873241 178.132271 
L 121.450253 176.01383 
L 126.027266 173.807017 
L 130.604278 171.529897 
L 135.181291 169.197632 
L 139.758304 166.824202 
L 144.335316 164.417947 
L 148.912329 161.993439 
L 153.489342 159.553548 
L 158.066354 157.106459 
L 162.643367 154.659723 
L 167.22038 152.216314 
L 171.797392 149.781395 
L 176.374405 147.358573 
L 180.951418 144.950759 
L 185.52843 142.560633 
L 190.105443 140.192286 
L 194.682456 137.845554 
L 199.259468 135.522997 
L 203.836481 133.224547 
L 208.413494 130.956503 
L 212.990506 128.715006 
L 217.567519 126.502588 
L 222.144532 124.320208 
L 226.721544 122.168402 
L 231.298557 120.047076 
L 235.87557 117.959378 
L 240.452582 115.903258 
L 245.029595 113.879477 
L 249.606608 111.888963 
L 254.18362 109.931599 
L 258.760633 108.007364 
" clip-path="url(#p15ed979102)" style="fill: none; stroke: #9d0008; stroke-linecap: square"/>
   </g>
   <g id="patch_3">
    <path d="M 29.91 188.15616 
L 29.91 98.401905 
" style="fill: none; stroke: #000000; stroke-linejoin: miter; stroke-linecap: square"/>
   </g>
   <g id="patch_4">
    <path d="M 255.9 188.15616 
L 255.9 98.401905 
" style="fill: none; stroke: #000000; stroke-linejoin: miter; stroke-linecap: square"/>
   </g>
   <g id="patch_5">
    <path d="M 29.91 188.15616 
L 255.9 188.15616 
" style="fill: none; stroke: #000000; stroke-linejoin: miter; stroke-linecap: square"/>
   </g>
   <g id="patch_6">
    <path d="M 29.91 98.401905 
L 255.9 98.401905 
" style="fill: none; stroke: #000000; stroke-linejoin: miter; stroke-linecap: square"/>
   </g>
   <g id="text_12">
    <!-- 68% CL threshold -->
    <g transform="translate(184.384177 173.795479) scale(0.07 -0.07)">
     <defs>
      <path id="DejaVuSerif-25" d="M 1434 4459 
Q 1159 4459 1004 4200 
Q 850 3941 850 3475 
Q 850 3016 1008 2753 
Q 1166 2491 1434 2491 
Q 1700 2491 1854 2752 
Q 2009 3013 2009 3475 
Q 2009 3938 1854 4198 
Q 1700 4459 1434 4459 
z
M 4653 2169 
Q 4381 2169 4226 1906 
Q 4072 1644 4072 1178 
Q 4072 719 4228 458 
Q 4384 197 4653 197 
Q 4922 197 5075 458 
Q 5228 719 5228 1178 
Q 5228 1641 5073 1905 
Q 4919 2169 4653 2169 
z
M 4653 2450 
Q 5147 2450 5437 2106 
Q 5728 1763 5728 1178 
Q 5728 594 5436 251 
Q 5144 -91 4653 -91 
Q 4153 -91 3862 251 
Q 3572 594 3572 1178 
Q 3572 1766 3864 2108 
Q 4156 2450 4653 2450 
z
M 4263 4750 
L 4738 4750 
L 1819 -91 
L 1344 -91 
L 4263 4750 
z
M 1428 4750 
Q 1922 4750 2215 4408 
Q 2509 4066 2509 3481 
Q 2509 2891 2217 2550 
Q 1925 2209 1428 2209 
Q 931 2209 642 2551 
Q 353 2894 353 3481 
Q 353 4063 643 4406 
Q 934 4750 1428 4750 
z
" transform="scale(0.015625)"/>
      <path id="DejaVuSerif-43" d="M 4513 1234 
Q 4306 581 3820 245 
Q 3334 -91 2591 -91 
Q 2134 -91 1743 65 
Q 1353 222 1050 525 
Q 700 875 529 1320 
Q 359 1766 359 2328 
Q 359 3416 987 4083 
Q 1616 4750 2644 4750 
Q 3025 4750 3456 4650 
Q 3888 4550 4384 4347 
L 4384 3272 
L 4031 3272 
Q 3916 3859 3567 4137 
Q 3219 4416 2591 4416 
Q 1844 4416 1459 3886 
Q 1075 3356 1075 2328 
Q 1075 1303 1459 773 
Q 1844 244 2591 244 
Q 3113 244 3450 492 
Q 3788 741 3938 1234 
L 4513 1234 
z
" transform="scale(0.015625)"/>
      <path id="DejaVuSerif-4c" d="M 353 0 
L 353 331 
L 947 331 
L 947 4331 
L 353 4331 
L 353 4666 
L 2175 4666 
L 2175 4331 
L 1581 4331 
L 1581 384 
L 3713 384 
L 3713 1166 
L 4097 1166 
L 4097 0 
L 353 0 
z
" transform="scale(0.015625)"/>
      <path id="DejaVuSerif-68" d="M 263 0 
L 263 331 
L 781 331 
L 781 4531 
L 231 4531 
L 231 4863 
L 1356 4863 
L 1356 2731 
Q 1516 3069 1770 3241 
Q 2025 3413 2363 3413 
Q 2913 3413 3172 3097 
Q 3431 2781 3431 2113 
L 3431 331 
L 3944 331 
L 3944 0 
L 2356 0 
L 2356 331 
L 2853 331 
L 2853 1931 
Q 2853 2541 2704 2764 
Q 2556 2988 2175 2988 
Q 1775 2988 1565 2697 
Q 1356 2406 1356 1850 
L 1356 331 
L 1856 331 
L 1856 0 
L 263 0 
z
" transform="scale(0.015625)"/>
      <path id="DejaVuSerif-64" d="M 3359 331 
L 3909 331 
L 3909 0 
L 2784 0 
L 2784 519 
Q 2616 206 2355 57 
Q 2094 -91 1709 -91 
Q 1097 -91 708 395 
Q 319 881 319 1663 
Q 319 2444 706 2928 
Q 1094 3413 1709 3413 
Q 2094 3413 2355 3264 
Q 2616 3116 2784 2803 
L 2784 4531 
L 2241 4531 
L 2241 4863 
L 3359 4863 
L 3359 331 
z
M 2784 1497 
L 2784 1825 
Q 2784 2422 2554 2737 
Q 2325 3053 1888 3053 
Q 1444 3053 1217 2703 
Q 991 2353 991 1663 
Q 991 975 1217 622 
Q 1444 269 1888 269 
Q 2325 269 2554 583 
Q 2784 897 2784 1497 
z
" transform="scale(0.015625)"/>
     </defs>
     <use xlink:href="#DejaVuSerif-36"/>
     <use xlink:href="#DejaVuSerif-38" x="63.623047"/>
     <use xlink:href="#DejaVuSerif-25" x="127.246094"/>
     <use xlink:href="#DejaVuSerif-20" x="222.265625"/>
     <use xlink:href="#DejaVuSerif-43" x="254.052734"/>
     <use xlink:href="#DejaVuSerif-4c" x="330.566406"/>
     <use xlink:href="#DejaVuSerif-20" x="396.972656"/>
     <use xlink:href="#DejaVuSerif-74" x="428.759766"/>
     <use xlink:href="#DejaVuSerif-68" x="468.945312"/>
     <use xlink:href="#DejaVuSerif-72" x="533.349609"/>
     <use xlink:href="#DejaVuSerif-65" x="581.152344"/>
     <use xlink:href="#DejaVuSerif-73" x="640.332031"/>
     <use xlink:href="#DejaVuSerif-68" x="691.650391"/>
     <use xlink:href="#DejaVuSerif-6f" x="756.054688"/>
     <use xlink:href="#DejaVuSerif-6c" x="816.259766"/>
     <use xlink:href="#DejaVuSerif-64" x="848.242188"/>
    </g>
   </g>
   <g id="text_13">
    <!-- 90% CL threshold -->
    <g style="fill: #909090" transform="translate(184.384177 153.451181) scale(0.07 -0.07)">
     <defs>
      <path id="DejaVuSerif-39" d="M 2994 2091 
Q 2784 1856 2512 1740 
Q 2241 1625 1900 1625 
Q 1206 1625 804 2044 
Q 403 2463 403 3188 
Q 403 3897 839 4323 
Q 1275 4750 2003 4750 
Q 2794 4750 3217 4161 
Q 3641 3572 3641 2478 
Q 3641 1253 3137 581 
Q 2634 -91 1722 -91 
Q 1475 -91 1203 -44 
Q 931 3 647 97 
L 647 872 
L 997 872 
Q 1038 556 1241 387 
Q 1444 219 1784 219 
Q 2391 219 2687 676 
Q 2984 1134 2994 2091 
z
M 1978 4441 
Q 1534 4441 1298 4117 
Q 1063 3794 1063 3188 
Q 1063 2581 1298 2256 
Q 1534 1931 1978 1931 
Q 2422 1931 2658 2245 
Q 2894 2559 2894 3150 
Q 2894 3772 2656 4106 
Q 2419 4441 1978 4441 
z
" transform="scale(0.015625)"/>
     </defs>
     <use xlink:href="#DejaVuSerif-39"/>
     <use xlink:href="#DejaVuSerif-30" x="63.623047"/>
     <use xlink:href="#DejaVuSerif-25" x="127.246094"/>
     <use xlink:href="#DejaVuSerif-20" x="222.265625"/>
     <use xlink:href="#DejaVuSerif-43" x="254.052734"/>
     <use xlink:href="#DejaVuSerif-4c" x="330.566406"/>
     <use xlink:href="#DejaVuSerif-20" x="396.972656"/>
     <use xlink:href="#DejaVuSerif-74" x="428.759766"/>
     <use xlink:href="#DejaVuSerif-68" x="468.945312"/>
     <use xlink:href="#DejaVuSerif-72" x="533.349609"/>
     <use xlink:href="#DejaVuSerif-65" x="581.152344"/>
     <use xlink:href="#DejaVuSerif-73" x="640.332031"/>
     <use xlink:href="#DejaVuSerif-68" x="691.650391"/>
     <use xlink:href="#DejaVuSerif-6f" x="756.054688"/>
     <use xlink:href="#DejaVuSerif-6c" x="816.259766"/>
     <use xlink:href="#DejaVuSerif-64" x="848.242188"/>
    </g>
   </g>
  </g>
  <g id="axes_2">
   <g id="patch_7">
    <path d="M 29.91 96.954255 
L 255.9 96.954255 
L 255.9 7.2 
L 29.91 7.2 
z
" style="fill: #ffffff"/>
   </g>
   <g id="patch_8">
    <path d="M 33.91 40.509624 
Q 31.91 39.509624 29.91 38.509624 
Q 31.91 37.509624 33.91 36.509624 
z
" style="fill: #4067b1; stroke: #4067b1; stroke-linecap: round"/>
   </g>
   <g id="patch_9">
    <path d="M 33.91 61.382707 
Q 31.91 60.382707 29.91 59.382707 
Q 31.91 58.382707 33.91 57.382707 
z
" style="fill: #6ccef5; stroke: #6ccef5; stroke-linecap: round"/>
   </g>
   <g id="matplotlib.axis_3">
    <g id="xtick_6">
     <g id="line2d_13">
      <g>
       <use xlink:href="#m1411148f26" x="29.91" y="96.954255" style="stroke: #000000"/>
      </g>
     </g>
     <g id="text_14">
      <!-- $\mathdefault{0}$ -->
      <g style="opacity: 0" transform="translate(27.03 107.292849) scale(0.09 -0.09)">
       <use xlink:href="#DejaVuSerif-30" transform="translate(0 0.78125)"/>
      </g>
     </g>
    </g>
    <g id="xtick_7">
     <g id="line2d_14">
      <g>
       <use xlink:href="#m1411148f26" x="84.398246" y="96.954255" style="stroke: #000000"/>
      </g>
     </g>
     <g id="text_15">
      <!-- $\mathdefault{5}$ -->
      <g style="opacity: 0" transform="translate(81.518246 107.292849) scale(0.09 -0.09)">
       <use xlink:href="#DejaVuSerif-35" transform="translate(0 0.09375)"/>
      </g>
     </g>
    </g>
    <g id="xtick_8">
     <g id="line2d_15">
      <g>
       <use xlink:href="#m1411148f26" x="138.886492" y="96.954255" style="stroke: #000000"/>
      </g>
     </g>
     <g id="text_16">
      <!-- $\mathdefault{10}$ -->
      <g style="opacity: 0" transform="translate(133.126492 107.292849) scale(0.09 -0.09)">
       <use xlink:href="#DejaVuSerif-31" transform="translate(0 0.78125)"/>
       <use xlink:href="#DejaVuSerif-30" transform="translate(63.623047 0.78125)"/>
      </g>
     </g>
    </g>
    <g id="xtick_9">
     <g id="line2d_16">
      <g>
       <use xlink:href="#m1411148f26" x="193.374738" y="96.954255" style="stroke: #000000"/>
      </g>
     </g>
     <g id="text_17">
      <!-- $\mathdefault{15}$ -->
      <g style="opacity: 0" transform="translate(187.614738 107.292849) scale(0.09 -0.09)">
       <use xlink:href="#DejaVuSerif-31" transform="translate(0 0.78125)"/>
       <use xlink:href="#DejaVuSerif-35" transform="translate(63.623047 0.78125)"/>
      </g>
     </g>
    </g>
    <g id="xtick_10">
     <g id="line2d_17">
      <g>
       <use xlink:href="#m1411148f26" x="247.862984" y="96.954255" style="stroke: #000000"/>
      </g>
     </g>
     <g id="text_18">
      <!-- $\mathdefault{20}$ -->
      <g style="opacity: 0" transform="translate(242.102984 107.292849) scale(0.09 -0.09)">
       <use xlink:href="#DejaVuSerif-32" transform="translate(0 0.78125)"/>
       <use xlink:href="#DejaVuSerif-30" transform="translate(63.623047 0.78125)"/>
      </g>
     </g>
    </g>
   </g>
   <g id="matplotlib.axis_4"/>
   <g id="LineCollection_1">
    <path d="M 84.87605 17.636541 
L 89.238599 17.636541 
" clip-path="url(#pb0f74833af)" style="fill: none; stroke: #105d20"/>
   </g>
   <g id="line2d_18">
    <defs>
     <path id="mc3d35ca499" d="M 0 3 
L 0 -3 
" style="stroke: #105d20"/>
    </defs>
    <g clip-path="url(#pb0f74833af)">
     <use xlink:href="#mc3d35ca499" x="84.87605" y="17.636541" style="fill: #105d20; stroke: #105d20"/>
    </g>
   </g>
   <g id="line2d_19">
    <g clip-path="url(#pb0f74833af)">
     <use xlink:href="#mc3d35ca499" x="89.238599" y="17.636541" style="fill: #105d20; stroke: #105d20"/>
    </g>
   </g>
   <g id="LineCollection_2">
    <path d="M 29.91 38.509624 
L 182.477089 38.509624 
" clip-path="url(#pb0f74833af)" style="fill: none; stroke: #4067b1"/>
   </g>
   <g id="line2d_20">
    <defs>
     <path id="mf5ba4cb845" d="M 0 -3 
L -4.5 -0 
L -0 3 
" style="stroke: #4067b1; stroke-linejoin: miter"/>
    </defs>
    <g clip-path="url(#pb0f74833af)">
     <use xlink:href="#mf5ba4cb845" x="29.91" y="38.509624" style="fill: #4067b1; stroke: #4067b1; stroke-linejoin: miter"/>
    </g>
   </g>
   <g id="line2d_21">
    <defs>
     <path id="ma67f0f52db" d="M 0 3 
L 0 -3 
" style="stroke: #4067b1"/>
    </defs>
    <g clip-path="url(#pb0f74833af)">
     <use xlink:href="#ma67f0f52db" x="182.477089" y="38.509624" style="fill: #4067b1; stroke: #4067b1"/>
    </g>
   </g>
   <g id="LineCollection_3">
    <path d="M 29.91 59.382707 
L 127.988843 59.382707 
" clip-path="url(#pb0f74833af)" style="fill: none; stroke: #6ccef5"/>
   </g>
   <g id="line2d_22">
    <defs>
     <path id="m780f69c35e" d="M 0 -3 
L -4.5 -0 
L -0 3 
" style="stroke: #6ccef5; stroke-linejoin: miter"/>
    </defs>
    <g clip-path="url(#pb0f74833af)">
     <use xlink:href="#m780f69c35e" x="29.91" y="59.382707" style="fill: #6ccef5; stroke: #6ccef5; stroke-linejoin: miter"/>
    </g>
   </g>
   <g id="line2d_23">
    <defs>
     <path id="m1746c931f2" d="M 0 3 
L 0 -3 
" style="stroke: #6ccef5"/>
    </defs>
    <g clip-path="url(#pb0f74833af)">
     <use xlink:href="#m1746c931f2" x="127.988843" y="59.382707" style="fill: #6ccef5; stroke: #6ccef5"/>
    </g>
   </g>
   <g id="LineCollection_4">
    <path d="M 55.962458 80.255789 
L 120.373023 80.255789 
" clip-path="url(#pb0f74833af)" style="fill: none; stroke: #000000"/>
   </g>
   <g id="line2d_24">
    <defs>
     <path id="m590fb34ab0" d="M 0 3 
L 0 -3 
" style="stroke: #000000"/>
    </defs>
    <g clip-path="url(#pb0f74833af)">
     <use xlink:href="#m590fb34ab0" x="55.962458" y="80.255789" style="stroke: #000000"/>
    </g>
   </g>
   <g id="line2d_25">
    <g clip-path="url(#pb0f74833af)">
     <use xlink:href="#m590fb34ab0" x="120.373023" y="80.255789" style="stroke: #000000"/>
    </g>
   </g>
   <g id="LineCollection_5">
    <path d="M 46.71296 80.255789 
L 158.980431 80.255789 
" clip-path="url(#pb0f74833af)" style="fill: none; stroke: #909090; stroke-opacity: 0.5"/>
   </g>
   <g id="line2d_26">
    <defs>
     <path id="mbbc92cb3f4" d="M 0 3 
L 0 -3 
" style="stroke: #909090; stroke-opacity: 0.5"/>
    </defs>
    <g clip-path="url(#pb0f74833af)">
     <use xlink:href="#mbbc92cb3f4" x="46.71296" y="80.255789" style="fill: #909090; fill-opacity: 0.5; stroke: #909090; stroke-opacity: 0.5"/>
    </g>
   </g>
   <g id="line2d_27">
    <g clip-path="url(#pb0f74833af)">
     <use xlink:href="#mbbc92cb3f4" x="158.980431" y="80.255789" style="fill: #909090; fill-opacity: 0.5; stroke: #909090; stroke-opacity: 0.5"/>
    </g>
   </g>
   <g id="line2d_28">
    <defs>
     <path id="m1f35810b8a" d="M -0 2.12132 
L 1.272792 0 
L 0 -2.12132 
L -1.272792 -0 
z
" style="stroke: #105d20; stroke-linejoin: miter"/>
    </defs>
    <g clip-path="url(#pb0f74833af)">
     <use xlink:href="#m1f35810b8a" x="87.122658" y="17.636541" style="fill: #105d20; stroke: #105d20; stroke-linejoin: miter"/>
    </g>
   </g>
   <g id="line2d_29"/>
   <g id="line2d_30"/>
   <g id="line2d_31">
    <defs>
     <path id="mcd5cffc4cd" d="M -0 2.12132 
L 1.272792 0 
L 0 -2.12132 
L -1.272792 -0 
z
" style="stroke: #000000; stroke-linejoin: miter"/>
    </defs>
    <g clip-path="url(#pb0f74833af)">
     <use xlink:href="#mcd5cffc4cd" x="81.046744" y="80.255789" style="stroke: #000000; stroke-linejoin: miter"/>
    </g>
   </g>
   <g id="line2d_32"/>
   <g id="patch_10">
    <path d="M 29.91 96.954255 
L 29.91 7.2 
" style="fill: none; stroke: #000000; stroke-linejoin: miter; stroke-linecap: square"/>
   </g>
   <g id="patch_11">
    <path d="M 255.9 96.954255 
L 255.9 7.2 
" style="fill: none; stroke: #000000; stroke-linejoin: miter; stroke-linecap: square"/>
   </g>
   <g id="patch_12">
    <path d="M 29.91 96.954255 
L 255.9 96.954255 
" style="fill: none; stroke: #000000; stroke-linejoin: miter; stroke-linecap: square"/>
   </g>
   <g id="patch_13">
    <path d="M 29.91 7.2 
L 255.9 7.2 
" style="fill: none; stroke: #000000; stroke-linejoin: miter; stroke-linecap: square"/>
   </g>
   <g id="text_19">
    <!-- SNO, 2013 -->
    <g style="fill: #105d20" transform="translate(187.24481 19.706073) scale(0.075 -0.075)">
     <defs>
      <path id="DejaVuSerif-53" d="M 594 225 
L 594 1288 
L 953 1284 
Q 969 753 1261 498 
Q 1553 244 2150 244 
Q 2706 244 2998 464 
Q 3291 684 3291 1106 
Q 3291 1444 3114 1625 
Q 2938 1806 2369 1978 
L 1753 2163 
Q 1084 2366 811 2669 
Q 538 2972 538 3500 
Q 538 4094 959 4422 
Q 1381 4750 2144 4750 
Q 2469 4750 2856 4679 
Q 3244 4609 3681 4475 
L 3681 3481 
L 3328 3481 
Q 3275 3975 2998 4195 
Q 2722 4416 2156 4416 
Q 1663 4416 1405 4214 
Q 1147 4013 1147 3628 
Q 1147 3294 1340 3103 
Q 1534 2913 2163 2725 
L 2741 2553 
Q 3375 2363 3645 2067 
Q 3916 1772 3916 1275 
Q 3916 597 3481 253 
Q 3047 -91 2188 -91 
Q 1803 -91 1404 -12 
Q 1006 66 594 225 
z
" transform="scale(0.015625)"/>
      <path id="DejaVuSerif-4e" d="M 313 0 
L 313 331 
L 941 331 
L 941 4331 
L 313 4331 
L 313 4666 
L 1509 4666 
L 4306 984 
L 4306 4331 
L 3681 4331 
L 3681 4666 
L 5319 4666 
L 5319 4331 
L 4691 4331 
L 4691 -91 
L 4313 -91 
L 1325 3841 
L 1325 331 
L 1953 331 
L 1953 0 
L 313 0 
z
" transform="scale(0.015625)"/>
      <path id="DejaVuSerif-4f" d="M 2625 244 
Q 3391 244 3781 770 
Q 4172 1297 4172 2328 
Q 4172 3363 3781 3889 
Q 3391 4416 2625 4416 
Q 1856 4416 1465 3889 
Q 1075 3363 1075 2328 
Q 1075 1297 1465 770 
Q 1856 244 2625 244 
z
M 2625 -91 
Q 2150 -91 1751 65 
Q 1353 222 1050 525 
Q 700 875 529 1319 
Q 359 1763 359 2328 
Q 359 2894 529 3339 
Q 700 3784 1050 4134 
Q 1356 4441 1750 4595 
Q 2144 4750 2625 4750 
Q 3641 4750 4266 4084 
Q 4891 3419 4891 2328 
Q 4891 1769 4719 1320 
Q 4547 872 4197 525 
Q 3891 219 3497 64 
Q 3103 -91 2625 -91 
z
" transform="scale(0.015625)"/>
      <path id="DejaVuSerif-2c" d="M 231 -622 
Q 525 -406 662 -114 
Q 800 178 800 594 
L 800 709 
L 1416 709 
Q 1391 175 1164 -208 
Q 938 -591 481 -872 
L 231 -622 
z
" transform="scale(0.015625)"/>
      <path id="DejaVuSerif-33" d="M 622 4469 
Q 988 4606 1323 4678 
Q 1659 4750 1953 4750 
Q 2638 4750 3022 4454 
Q 3406 4159 3406 3634 
Q 3406 3213 3140 2930 
Q 2875 2647 2388 2547 
Q 2963 2466 3280 2130 
Q 3597 1794 3597 1259 
Q 3597 606 3158 257 
Q 2719 -91 1894 -91 
Q 1528 -91 1179 -12 
Q 831 66 488 225 
L 488 1131 
L 838 1131 
Q 869 681 1141 450 
Q 1413 219 1906 219 
Q 2384 219 2661 495 
Q 2938 772 2938 1253 
Q 2938 1803 2653 2086 
Q 2369 2369 1819 2369 
L 1522 2369 
L 1522 2688 
L 1678 2688 
Q 2225 2688 2498 2914 
Q 2772 3141 2772 3597 
Q 2772 4006 2547 4223 
Q 2322 4441 1900 4441 
Q 1478 4441 1245 4241 
Q 1013 4041 972 3647 
L 622 3647 
L 622 4469 
z
" transform="scale(0.015625)"/>
     </defs>
     <use xlink:href="#DejaVuSerif-53"/>
     <use xlink:href="#DejaVuSerif-4e" x="68.505859"/>
     <use xlink:href="#DejaVuSerif-4f" x="156.005859"/>
     <use xlink:href="#DejaVuSerif-2c" x="232.113281"/>
     <use xlink:href="#DejaVuSerif-20" x="263.900391"/>
     <use xlink:href="#DejaVuSerif-32" x="295.6875"/>
     <use xlink:href="#DejaVuSerif-30" x="359.310547"/>
     <use xlink:href="#DejaVuSerif-31" x="422.933594"/>
     <use xlink:href="#DejaVuSerif-33" x="486.556641"/>
    </g>
   </g>
   <g id="text_20">
    <!-- XENON1T, 2021 -->
    <g style="fill: #4067b1" transform="translate(187.24481 40.579155) scale(0.075 -0.075)">
     <defs>
      <path id="DejaVuSerif-58" d="M 2119 1997 
L 978 331 
L 1581 331 
L 1581 0 
L 38 0 
L 38 331 
L 575 331 
L 1919 2291 
L 556 4331 
L 56 4331 
L 56 4666 
L 1906 4666 
L 1906 4331 
L 1356 4331 
L 2356 2828 
L 3384 4331 
L 2784 4331 
L 2784 4666 
L 4313 4666 
L 4313 4331 
L 3788 4331 
L 2553 2534 
L 4025 331 
L 4525 331 
L 4525 0 
L 2675 0 
L 2675 331 
L 3231 331 
L 2119 1997 
z
" transform="scale(0.015625)"/>
      <path id="DejaVuSerif-45" d="M 353 0 
L 353 331 
L 947 331 
L 947 4331 
L 353 4331 
L 353 4666 
L 4109 4666 
L 4109 3628 
L 3725 3628 
L 3725 4281 
L 1581 4281 
L 1581 2719 
L 3109 2719 
L 3109 3303 
L 3494 3303 
L 3494 1753 
L 3109 1753 
L 3109 2338 
L 1581 2338 
L 1581 384 
L 3775 384 
L 3775 1038 
L 4159 1038 
L 4159 0 
L 353 0 
z
" transform="scale(0.015625)"/>
     </defs>
     <use xlink:href="#DejaVuSerif-58"/>
     <use xlink:href="#DejaVuSerif-45" x="71.191406"/>
     <use xlink:href="#DejaVuSerif-4e" x="144.189453"/>
     <use xlink:href="#DejaVuSerif-4f" x="231.689453"/>
     <use xlink:href="#DejaVuSerif-4e" x="313.671875"/>
     <use xlink:href="#DejaVuSerif-31" x="401.171875"/>
     <use xlink:href="#DejaVuSerif-54" x="464.794922"/>
     <use xlink:href="#DejaVuSerif-2c" x="516.744141"/>
     <use xlink:href="#DejaVuSerif-20" x="548.53125"/>
     <use xlink:href="#DejaVuSerif-32" x="580.318359"/>
     <use xlink:href="#DejaVuSerif-30" x="643.941406"/>
     <use xlink:href="#DejaVuSerif-32" x="707.564453"/>
     <use xlink:href="#DejaVuSerif-31" x="771.1875"/>
    </g>
   </g>
   <g id="text_21">
    <!-- PandaX-4T, 2023 -->
    <g style="fill: #6ccef5" transform="translate(187.24481 61.452238) scale(0.075 -0.075)">
     <defs>
      <path id="DejaVuSerif-50" d="M 1581 2375 
L 2406 2375 
Q 2872 2375 3115 2626 
Q 3359 2878 3359 3353 
Q 3359 3831 3115 4081 
Q 2872 4331 2406 4331 
L 1581 4331 
L 1581 2375 
z
M 353 0 
L 353 331 
L 947 331 
L 947 4331 
L 353 4331 
L 353 4666 
L 2559 4666 
Q 3259 4666 3668 4311 
Q 4078 3956 4078 3353 
Q 4078 2753 3668 2397 
Q 3259 2041 2559 2041 
L 1581 2041 
L 1581 331 
L 2303 331 
L 2303 0 
L 353 0 
z
" transform="scale(0.015625)"/>
      <path id="DejaVuSerif-2d" d="M 281 1959 
L 1881 1959 
L 1881 1472 
L 281 1472 
L 281 1959 
z
" transform="scale(0.015625)"/>
     </defs>
     <use xlink:href="#DejaVuSerif-50"/>
     <use xlink:href="#DejaVuSerif-61" x="62.785156"/>
     <use xlink:href="#DejaVuSerif-6e" x="122.404297"/>
     <use xlink:href="#DejaVuSerif-64" x="186.808594"/>
     <use xlink:href="#DejaVuSerif-61" x="250.822266"/>
     <use xlink:href="#DejaVuSerif-58" x="310.441406"/>
     <use xlink:href="#DejaVuSerif-2d" x="378.007812"/>
     <use xlink:href="#DejaVuSerif-34" x="411.796875"/>
     <use xlink:href="#DejaVuSerif-54" x="475.419922"/>
     <use xlink:href="#DejaVuSerif-2c" x="527.369141"/>
     <use xlink:href="#DejaVuSerif-20" x="559.15625"/>
     <use xlink:href="#DejaVuSerif-32" x="590.943359"/>
     <use xlink:href="#DejaVuSerif-30" x="654.566406"/>
     <use xlink:href="#DejaVuSerif-32" x="718.189453"/>
     <use xlink:href="#DejaVuSerif-33" x="781.8125"/>
    </g>
   </g>
   <g id="text_22">
    <!-- XENONnT, 2024 -->
    <g transform="translate(187.24481 78.126141) scale(0.075 -0.075)">
     <use xlink:href="#DejaVuSerif-58"/>
     <use xlink:href="#DejaVuSerif-45" x="71.191406"/>
     <use xlink:href="#DejaVuSerif-4e" x="144.189453"/>
     <use xlink:href="#DejaVuSerif-4f" x="231.689453"/>
     <use xlink:href="#DejaVuSerif-4e" x="313.671875"/>
     <use xlink:href="#DejaVuSerif-6e" x="401.171875"/>
     <use xlink:href="#DejaVuSerif-54" x="465.576172"/>
     <use xlink:href="#DejaVuSerif-2c" x="517.525391"/>
     <use xlink:href="#DejaVuSerif-20" x="549.3125"/>
     <use xlink:href="#DejaVuSerif-32" x="581.099609"/>
     <use xlink:href="#DejaVuSerif-30" x="644.722656"/>
     <use xlink:href="#DejaVuSerif-32" x="708.345703"/>
     <use xlink:href="#DejaVuSerif-34" x="771.96875"/>
    </g>
    <!--     (This Work) -->
    <g transform="translate(187.24481 86.5245) scale(0.075 -0.075)">
     <defs>
      <path id="DejaVuSerif-28" d="M 2041 -997 
Q 1281 -656 893 83 
Q 506 822 506 1931 
Q 506 3044 893 3783 
Q 1281 4522 2041 4863 
L 2041 4556 
Q 1559 4225 1350 3623 
Q 1141 3022 1141 1931 
Q 1141 844 1350 242 
Q 1559 -359 2041 -691 
L 2041 -997 
z
" transform="scale(0.015625)"/>
      <path id="DejaVuSerif-57" d="M 4878 0 
L 4366 0 
L 3297 3794 
L 2228 0 
L 1716 0 
L 494 4331 
L 31 4331 
L 31 4666 
L 1734 4666 
L 1734 4331 
L 1153 4331 
L 2125 884 
L 3188 4666 
L 3694 4666 
L 4775 844 
L 5753 4331 
L 5216 4331 
L 5216 4666 
L 6559 4666 
L 6559 4331 
L 6100 4331 
L 4878 0 
z
" transform="scale(0.015625)"/>
      <path id="DejaVuSerif-6b" d="M 1831 0 
L 219 0 
L 219 331 
L 738 331 
L 738 4531 
L 184 4531 
L 184 4863 
L 1313 4863 
L 1313 1697 
L 2713 2988 
L 2234 2988 
L 2234 3322 
L 3738 3322 
L 3738 2988 
L 3169 2988 
L 2181 2075 
L 3444 331 
L 3922 331 
L 3922 0 
L 2284 0 
L 2284 331 
L 2759 331 
L 1766 1697 
L 1313 1275 
L 1313 331 
L 1831 331 
L 1831 0 
z
" transform="scale(0.015625)"/>
      <path id="DejaVuSerif-29" d="M 453 -997 
L 453 -691 
Q 934 -359 1145 242 
Q 1356 844 1356 1931 
Q 1356 3022 1145 3623 
Q 934 4225 453 4556 
L 453 4863 
Q 1216 4522 1603 3783 
Q 1991 3044 1991 1931 
Q 1991 822 1603 83 
Q 1216 -656 453 -997 
z
" transform="scale(0.015625)"/>
     </defs>
     <use xlink:href="#DejaVuSerif-20"/>
     <use xlink:href="#DejaVuSerif-20" x="31.787109"/>
     <use xlink:href="#DejaVuSerif-20" x="63.574219"/>
     <use xlink:href="#DejaVuSerif-20" x="95.361328"/>
     <use xlink:href="#DejaVuSerif-28" x="127.148438"/>
     <use xlink:href="#DejaVuSerif-54" x="166.162109"/>
     <use xlink:href="#DejaVuSerif-68" x="232.861328"/>
     <use xlink:href="#DejaVuSerif-69" x="297.265625"/>
     <use xlink:href="#DejaVuSerif-73" x="329.248047"/>
     <use xlink:href="#DejaVuSerif-20" x="380.566406"/>
     <use xlink:href="#DejaVuSerif-57" x="412.353516"/>
     <use xlink:href="#DejaVuSerif-6f" x="508.386719"/>
     <use xlink:href="#DejaVuSerif-72" x="568.591797"/>
     <use xlink:href="#DejaVuSerif-6b" x="616.394531"/>
     <use xlink:href="#DejaVuSerif-29" x="676.990234"/>
    </g>
   </g>
  </g>
 </g>
 <defs>
  <clipPath id="p15ed979102">
   <rect x="29.91" y="98.401905" width="225.99" height="89.754255"/>
  </clipPath>
  <clipPath id="pb0f74833af">
   <rect x="29.91" y="7.2" width="225.99" height="89.754255"/>
  </clipPath>
 </defs>
</svg>
